<?xml version="1.0" encoding="UTF-8"?><svg id="Layer_1" xmlns="http://www.w3.org/2000/svg" viewBox="0 0 451.98 57.47"><defs><style>.cls-1{fill:#00ffde;}</style></defs><path class="cls-1" d="M9.95,56.66L.22,29.03c-.15-.44-.22-.74-.22-1.25V1.03C0,.37.37,0,1.03,0h5.82c.66,0,1.03.37,1.03,1.03v24.24c0,2.14.22,3.68.81,5.75l4.64,16.87c.37,1.25,1.25,1.91,2.43,1.91,1.1,0,2.06-.66,2.43-1.91l4.64-16.87c.59-2.06.81-3.61.81-5.75V1.03c0-.66.37-1.03,1.03-1.03h5.82c.66,0,1.03.37,1.03,1.03v26.67c0,.52-.07.81-.22,1.25l-9.58,27.71c-.22.52-.59.81-1.18.81h-9.43c-.59,0-.96-.29-1.18-.81Z"/><path class="cls-1" d="M45.12,56.74l-6.78-14.59c-.22-.44-.29-.74-.29-1.25v-16.21c0-.44.15-.81.37-1.25l6.63-11.64c.29-.44.73-.73,1.25-.73h15.92c.52,0,.96.22,1.25.66l6.19,10.09c.22.37.37.81.37,1.25v12.6c0,.67-.37,1.03-1.03,1.03h-17.83c-3.31,0-5.16,1.99-4.12,5.23l1.77,6.71c.81,2.58,2.36,3.98,4.86,3.98h1.77c2.8,0,4.2-1.4,5.23-3.98l.29-.74c.37-.96.52-1.4.66-2.21.07-.66.44-1.03,1.03-1.03h6.34c.67,0,1.03.37,1.03,1.03v.96c0,.52-.15.96-.44,1.33l-6.41,8.84c-.29.44-.74.66-1.25.66h-15.55c-.59,0-1.03-.22-1.25-.74ZM62.06,27.12v-2.06c0-2.36-.59-3.98-1.77-5.97-1.33-2.29-3.31-3.17-5.75-3.17-3.09,0-5.38,1.18-6.34,3.91l-.96,2.65c-.59,1.55-.81,3.54-.88,5.01.15,2.87,1.77,4.35,4.64,4.35h6.41c3.02,0,4.64-1.69,4.64-4.72Z"/><path class="cls-1" d="M79.18,11.05h20.34c.52,0,.96.22,1.25.66l7.22,10.09c.29.37.44.81.44,1.33v6.56c0,.66-.37,1.03-1.03,1.03h-6.26c-.66,0-1.03-.37-1.03-1.03v-4.57c0-2.21-.44-3.83-1.47-5.82-1.1-2.14-2.73-3.24-5.08-3.39h-2.72c-3.02,0-4.79,1.69-4.79,4.72v35.81c0,.66-.37,1.03-1.03,1.03h-5.82c-.66,0-1.03-.37-1.03-1.03V12.08c0-.66.37-1.03,1.03-1.03Z"/><path class="cls-1" d="M130.41,52.61h.74c2.58,0,4.35-.88,5.6-2.73h.07s.15-.15.37-.59c.81-1.33,1.1-2.58,1.1-4.13v-1.69c0-4.05-2.21-6.78-6.7-6.78h-11.71l-5.31-8.32v-8.99l7.44-8.32h16.65l7.74,9.13v3.68h-8.32v-.59c0-1.62-.37-2.95-1.47-4.35l-.59-.81c-1.18-1.55-2.95-2.21-5.38-2.21h-.81c-2.58,0-4.35.88-5.68,2.73-1.1,1.62-1.47,2.95-1.47,4.72v1.1c0,1.77.37,3.02,1.33,4.72,1.03,1.84,2.8,2.65,5.45,2.65h10.9l6.04,7.59v8.77l-7.44,9.28h-16.87l-7.74-10.09v-2.73h8.32c.15,1.62.22,1.99.74,3.24l.29.74c1.03,2.65,3.54,3.98,6.7,3.98Z"/><path class="cls-1" d="M151.94,56.44v-2.8c0-.66.37-1.03,1.03-1.03h9.43c1.47,0,2.36-.88,2.36-2.36v-31.98c0-1.48-.88-2.36-2.36-2.36h-9.43c-.66,0-1.03-.37-1.03-1.03v-2.8c0-.66.37-1.03,1.03-1.03h18.64c.66,0,1.03.37,1.03,1.03v38.17c0,1.47.88,2.36,2.36,2.36h9.06c.66,0,1.03.37,1.03,1.03v2.8c0,.66-.37,1.03-1.03,1.03h-31.09c-.66,0-1.03-.37-1.03-1.03ZM164.77,5.6V1.03c0-.66.37-1.03,1.03-1.03h5.82c.66,0,1.03.37,1.03,1.03v4.57c0,.66-.37,1.03-1.03,1.03h-5.82c-.66,0-1.03-.37-1.03-1.03Z"/><path class="cls-1" d="M198.39,56.74l-7.51-14.59c-.22-.44-.3-.81-.3-1.25v-16.21c0-.44.15-.88.37-1.25l7.37-11.71c.29-.52.73-.66,1.25-.66h14c.52,0,.96.22,1.25.66l7.59,10.09c.29.37.44.81.44,1.33v20.63c0,.44-.15.88-.37,1.25l-7.37,11.79c-.29.52-.74.66-1.25.66h-14.29c-.52,0-.96-.22-1.18-.74ZM211.87,48.85l1.62-3.02c.96-1.84,1.03-3.61,1.03-5.75v-15.03c0-2.36-.59-3.98-1.77-5.97-1.33-2.21-3.1-3.17-5.68-3.17-2.72,0-4.72,1.4-5.97,3.91l-1.33,2.65c-.96,1.91-.88,3.61-.88,5.75v8.32c0,2.14.07,3.68.81,5.75l2.36,6.34c.96,2.58,2.36,3.98,4.86,3.98,2.29,0,3.69-1.4,4.94-3.76Z"/><path class="cls-1" d="M230.97,11.05h21.96c.52,0,.96.22,1.18.73l5.97,12.6c.22.44.29.74.29,1.25v30.8c0,.66-.37,1.03-1.03,1.03h-5.82c-.67,0-1.03-.37-1.03-1.03v-27.63c0-2.06.07-3.68-.66-5.67l-1.11-3.1c-.96-2.65-2.36-4.12-5.08-4.12h-3.09c-3.02,0-4.72,1.69-4.72,4.72v35.81c0,.66-.37,1.03-1.03,1.03h-5.82c-.66,0-1.03-.37-1.03-1.03V12.08c0-.66.37-1.03,1.03-1.03Z"/><path class="cls-1" d="M305.44,56.44v-3.98c0-.52.07-.81.29-1.25l19.75-40.75c1.55-3.24.15-5.6-3.46-5.6h-15.55c-.66,0-1.03-.37-1.03-1.03V1.03c0-.66.37-1.03,1.03-1.03h28.66c.66,0,1.03.37,1.03,1.03v4.94c0,.52-.07.81-.29,1.25l-19.38,39.79c-1.62,3.24-.15,5.6,3.46,5.6h16.14c.66,0,1.03.37,1.03,1.03v2.8c0,.66-.37,1.03-1.03,1.03h-29.62c-.66,0-1.03-.37-1.03-1.03Z"/><path class="cls-1" d="M350.62,56.74l-6.78-14.59c-.22-.44-.29-.74-.29-1.25v-16.21c0-.44.15-.81.37-1.25l6.63-11.64c.29-.44.73-.73,1.25-.73h15.92c.52,0,.96.22,1.25.66l6.19,10.09c.22.37.37.81.37,1.25v12.6c0,.67-.37,1.03-1.03,1.03h-17.83c-3.31,0-5.16,1.99-4.12,5.23l1.77,6.71c.81,2.58,2.36,3.98,4.86,3.98h1.77c2.8,0,4.2-1.4,5.23-3.98l.29-.74c.37-.96.52-1.4.66-2.21.07-.66.44-1.03,1.03-1.03h6.34c.67,0,1.03.37,1.03,1.03v.96c0,.52-.15.96-.44,1.33l-6.41,8.84c-.29.44-.74.66-1.25.66h-15.55c-.59,0-1.03-.22-1.25-.74ZM367.57,27.12v-2.06c0-2.36-.59-3.98-1.77-5.97-1.33-2.29-3.31-3.17-5.75-3.17-3.09,0-5.38,1.18-6.34,3.91l-.96,2.65c-.59,1.55-.81,3.54-.88,5.01.15,2.87,1.77,4.35,4.64,4.35h6.41c3.02,0,4.64-1.69,4.64-4.72Z"/><path class="cls-1" d="M384.69,11.05h20.34c.52,0,.96.22,1.25.66l7.22,10.09c.29.37.44.81.44,1.33v6.56c0,.66-.37,1.03-1.03,1.03h-6.26c-.66,0-1.03-.37-1.03-1.03v-4.57c0-2.21-.44-3.83-1.47-5.82-1.1-2.14-2.73-3.24-5.08-3.39h-2.72c-3.02,0-4.79,1.69-4.79,4.72v35.81c0,.66-.37,1.03-1.03,1.03h-5.82c-.66,0-1.03-.37-1.03-1.03V12.08c0-.66.37-1.03,1.03-1.03Z"/><path class="cls-1" d="M427.52,56.74l-7.51-14.59c-.22-.44-.3-.81-.3-1.25v-16.21c0-.44.15-.88.37-1.25l7.37-11.71c.29-.52.73-.66,1.25-.66h14c.52,0,.96.22,1.25.66l7.59,10.09c.29.37.44.81.44,1.33v20.63c0,.44-.15.88-.37,1.25l-7.37,11.79c-.29.52-.74.66-1.25.66h-14.29c-.52,0-.96-.22-1.18-.74ZM441,48.85l1.62-3.02c.96-1.84,1.03-3.61,1.03-5.75v-15.03c0-2.36-.59-3.98-1.77-5.97-1.33-2.21-3.1-3.17-5.68-3.17-2.72,0-4.72,1.4-5.97,3.91l-1.33,2.65c-.96,1.91-.88,3.61-.88,5.75v8.32c0,2.14.07,3.68.81,5.75l2.36,6.34c.96,2.58,2.36,3.98,4.86,3.98,2.29,0,3.69-1.4,4.94-3.76Z"/></svg>