<svg width="90" height="10" viewBox="0 0 90 10" fill="none" xmlns="http://www.w3.org/2000/svg">
<g clip-path="url(#clip0_2825_519)">
<path d="M49.4568 4.98156C50.1054 4.48923 50.6062 3.82813 50.9046 3.07047C51.2135 2.30854 51.3679 1.33713 51.3679 0.15625H46.9999C47.0061 0.610507 46.9537 1.06367 46.8442 1.50456C46.7565 1.86059 46.606 2.19809 46.3996 2.50114C46.2185 2.76448 45.9774 2.981 45.6961 3.13285C45.4054 3.28492 45.0857 3.37363 44.7582 3.39313V0.157188H40.4727V9.84485H44.7582V6.30829C46.1548 6.35925 46.9061 7.53811 47.0121 9.84485H51.6404C51.5682 8.68522 51.347 7.7085 50.9768 6.91468C50.6066 6.12086 50.0998 5.47648 49.4564 4.98156" fill="white"/>
<path d="M8.55836 4.94357C8.96481 4.71471 9.27746 4.43207 9.49632 4.09566C9.71517 3.75924 9.8246 3.34764 9.8246 2.86084C9.8246 2.00574 9.49866 1.3412 8.84679 0.867219C8.20147 0.39324 7.29275 0.15625 6.12062 0.15625H0V9.84485H6.83159C7.81769 9.84485 8.60714 9.60567 9.19993 9.12731C9.78865 8.65365 10.083 7.99974 10.083 7.16558C10.083 6.64502 9.95388 6.21012 9.69563 5.86089C9.43738 5.51166 9.05845 5.20588 8.55883 4.94357M4.79107 7.79589C4.56716 7.79598 4.34825 7.72967 4.16202 7.60535C3.9758 7.48103 3.83062 7.30428 3.74485 7.09745C3.65908 6.89062 3.63656 6.663 3.68015 6.44337C3.72374 6.22375 3.83148 6.02198 3.98975 5.86359C4.14801 5.70519 4.34969 5.59728 4.56928 5.55351C4.78887 5.50974 5.01651 5.53206 5.22341 5.61766C5.43031 5.70326 5.60718 5.8483 5.73166 6.03442C5.85613 6.22054 5.92262 6.4394 5.92271 6.66331C5.92259 6.96348 5.80326 7.25132 5.59096 7.46353C5.37866 7.67574 5.09078 7.79495 4.7906 7.79495M4.7906 4.17914C4.56667 4.17914 4.34777 4.11273 4.16159 3.98831C3.9754 3.86389 3.8303 3.68705 3.74462 3.48016C3.65895 3.27326 3.63656 3.04561 3.68028 2.82599C3.724 2.60637 3.83187 2.40465 3.99024 2.24634C4.14862 2.08803 4.35039 1.98024 4.57003 1.93661C4.78966 1.89298 5.01731 1.91547 5.22417 2.00123C5.43103 2.08698 5.6078 2.23216 5.73215 2.4184C5.85649 2.60464 5.92281 2.82356 5.92271 3.04749C5.92259 3.34767 5.80326 3.6355 5.59096 3.84771C5.37866 4.05992 5.09078 4.17914 4.7906 4.17914Z" fill="white"/>
<path d="M35.4789 4.36149C35.7049 4.23424 36.0489 4.17077 36.5106 4.17108C36.8135 4.17086 37.116 4.19406 37.4153 4.24049C37.6971 4.28317 37.9745 4.35129 38.244 4.44403L40.0406 1.02049C39.5582 0.712845 38.9614 0.467883 38.2501 0.285607C37.5607 0.0992361 36.85 0.00323005 36.1359 0C35.1454 0 34.2355 0.207444 33.406 0.622333C32.5988 1.02388 31.9227 1.64709 31.4569 2.41898C30.978 3.20061 30.7388 4.08307 30.7394 5.06636C30.7325 5.94703 30.9627 6.81334 31.4058 7.57445C31.8484 8.34295 32.506 8.96532 33.2977 9.36501C34.1146 9.78802 35.0585 9.99969 36.1294 10C36.8281 9.99595 37.5236 9.9041 38.1994 9.72659C38.9273 9.539 39.541 9.29575 40.0406 8.99686L38.244 5.32711C38.001 5.4418 37.7451 5.52697 37.4819 5.58083C37.1938 5.64082 36.9001 5.67052 36.6058 5.66947C36.1319 5.66947 35.7689 5.60396 35.5169 5.47296C35.2649 5.34196 35.1389 5.15578 35.1389 4.91441C35.1389 4.67273 35.2522 4.48858 35.4789 4.36196" fill="white"/>
<path d="M60.7459 4.94357C61.1523 4.71471 61.465 4.43207 61.6838 4.09566C61.9027 3.75924 62.0121 3.34764 62.0121 2.86084C62.0121 2.00574 61.6862 1.3412 61.0343 0.867219C60.389 0.39324 59.4803 0.15625 58.3081 0.15625H52.1875V9.84485H59.0191C60.0049 9.84485 60.7942 9.60567 61.387 9.12731C61.9754 8.65365 62.2696 7.99974 62.2696 7.16558C62.2696 6.64502 62.1404 6.21012 61.8822 5.86089C61.6239 5.51166 61.2452 5.20588 60.7459 4.94357ZM57.0742 7.79589C56.8504 7.79561 56.6317 7.72899 56.4457 7.60444C56.2597 7.4799 56.1148 7.30301 56.0294 7.09615C55.9439 6.88929 55.9216 6.66173 55.9654 6.44222C56.0092 6.22272 56.1171 6.02113 56.2755 5.86292C56.4338 5.70472 56.6355 5.597 56.855 5.55337C57.0746 5.50975 57.3021 5.53219 57.5089 5.61784C57.7157 5.7035 57.8924 5.84853 58.0168 6.03461C58.1412 6.2207 58.2077 6.43948 58.2078 6.66331C58.2079 6.81215 58.1786 6.95956 58.1217 7.09709C58.0648 7.23462 57.9813 7.35956 57.876 7.46477C57.7707 7.56998 57.6457 7.65338 57.5081 7.7102C57.3705 7.76701 57.2231 7.79613 57.0742 7.79589ZM57.0742 4.18007C56.8503 4.18017 56.6313 4.11384 56.4451 3.98947C56.2588 3.86511 56.1137 3.6883 56.0279 3.48142C55.9422 3.27453 55.9197 3.04687 55.9634 2.82721C56.0071 2.60756 56.1149 2.4058 56.2732 2.24744C56.4316 2.08908 56.6334 1.98125 56.853 1.93758C57.0727 1.89391 57.3003 1.91637 57.5072 2.00212C57.7141 2.08786 57.8909 2.23304 58.0153 2.41929C58.1396 2.60554 58.206 2.82448 58.2059 3.04843C58.2059 3.34856 58.0867 3.6364 57.8744 3.84862C57.6622 4.06085 57.3744 4.18007 57.0742 4.18007Z" fill="white"/>
<path d="M76.533 5.20385C76.8783 4.96605 77.1606 4.64785 77.3555 4.27668C77.5466 3.899 77.6432 3.48057 77.6369 3.05734C77.6406 2.54614 77.4999 2.04429 77.2308 1.60961C76.9597 1.16127 76.5555 0.807816 76.018 0.549253C75.4806 0.29069 74.8671 0.159689 74.1777 0.15625H67.7842V9.84485H72.0697V6.25764H72.095C72.6709 6.25764 73.1027 6.537 73.3903 7.0957C73.678 7.65441 73.8656 8.57079 73.9531 9.84485H78.4037C78.3062 8.90127 78.102 8.04147 77.7912 7.26547C77.4936 6.51085 77.0671 5.81372 76.5306 5.20526M72.5565 4.18148C72.3325 4.18157 72.1136 4.11524 71.9273 3.99088C71.7411 3.86652 71.5959 3.68971 71.5102 3.48283C71.4244 3.27594 71.402 3.04827 71.4456 2.82862C71.4893 2.60897 71.5971 2.4072 71.7555 2.24885C71.9139 2.09049 72.1156 1.98266 72.3353 1.93899C72.5549 1.89532 72.7826 1.91778 72.9895 2.00353C73.1964 2.08927 73.3732 2.23445 73.4975 2.4207C73.6219 2.60694 73.6882 2.82589 73.6881 3.04984C73.6881 3.34997 73.5689 3.63781 73.3567 3.85003C73.1445 4.06225 72.8566 4.18148 72.5565 4.18148Z" fill="white"/>
<path d="M14.7061 0.15625H10.4141V9.84485H18.4645V7.17168H14.7061V0.15625Z" fill="white"/>
<path d="M66.9691 0.15625H62.6836V9.84485H66.9691V0.15625Z" fill="white"/>
<path d="M88.4396 2.52943C88.0048 1.76391 87.3499 1.14677 86.56 0.758108C85.7515 0.351661 84.8309 0.148438 83.7982 0.148438H78.9541V9.83797H83.703C84.7525 9.83797 85.688 9.64116 86.5093 9.24753C87.3307 8.8539 87.9677 8.2755 88.4204 7.51232C88.8738 6.75858 89.111 5.8946 89.106 5.01501C89.1099 4.14184 88.8798 3.28358 88.4396 2.52943ZM83.9436 6.16119C83.7196 6.16129 83.5007 6.09496 83.3144 5.97059C83.1282 5.84623 82.983 5.66942 82.8972 5.46254C82.8115 5.25565 82.789 5.02799 82.8327 4.80833C82.8764 4.58868 82.9842 4.38692 83.1426 4.22856C83.3009 4.0702 83.5027 3.96237 83.7223 3.9187C83.942 3.87503 84.1696 3.89749 84.3765 3.98324C84.5834 4.06898 84.7602 4.21416 84.8846 4.40041C85.009 4.58665 85.0753 4.8056 85.0752 5.02955C85.0752 5.32968 84.956 5.61752 84.7437 5.82974C84.5315 6.04197 84.2437 6.16119 83.9436 6.16119Z" fill="white"/>
<path d="M22.1471 0.15625L18.7822 9.84485H23.0734L23.6319 8.20671H26.7811L27.3411 9.84485H31.6266L28.2612 0.15625H22.1471ZM25.2044 5.88762C24.9862 5.88771 24.7729 5.82307 24.5915 5.70187C24.41 5.58067 24.2687 5.40837 24.1852 5.20677C24.1018 5.00517 24.08 4.78335 24.1227 4.56938C24.1653 4.35541 24.2706 4.15891 24.425 4.00476C24.5794 3.85061 24.7761 3.74574 24.9901 3.70342C25.2041 3.66111 25.4259 3.68325 25.6274 3.76705C25.8288 3.85084 26.0009 3.99253 26.1218 4.17416C26.2427 4.35579 26.307 4.56921 26.3065 4.7874C26.3064 5.0797 26.1902 5.36 25.9836 5.56673C25.7769 5.77346 25.4967 5.88972 25.2044 5.88996" fill="white"/>
</g>
<defs>
<clipPath id="clip0_2825_519">
<rect width="89.1057" height="10" fill="white"/>
</clipPath>
</defs>
</svg>
