<svg width="90" height="10" viewBox="0 0 90 10" fill="none" xmlns="http://www.w3.org/2000/svg">
<g clip-path="url(#clip0_501_1388)">
<path d="M49.4529 4.97911C50.1015 4.48678 50.6023 3.82569 50.9007 3.06803C51.2096 2.3061 51.364 1.33469 51.364 0.153809H46.996C47.0022 0.608065 46.9498 1.06123 46.8403 1.50212C46.7526 1.85815 46.6021 2.19564 46.3957 2.49869C46.2146 2.76204 45.9735 2.97856 45.6922 3.13041C45.4015 3.28248 45.0818 3.37119 44.7543 3.39069V0.154747H40.4688V9.84241H44.7543V6.30585C46.1509 6.35681 46.9022 7.53566 47.0082 9.84241H51.6365C51.5643 8.68278 51.3431 7.70606 50.9729 6.91224C50.6027 6.11842 50.0959 5.47404 49.4525 4.97911" fill="#74FBDE"/>
<path d="M8.55836 4.94113C8.96481 4.71227 9.27746 4.42963 9.49632 4.09322C9.71517 3.7568 9.8246 3.3452 9.8246 2.8584C9.8246 2.0033 9.49866 1.33876 8.84679 0.864778C8.20147 0.390798 7.29275 0.153809 6.12062 0.153809H0V9.84241H6.83159C7.81769 9.84241 8.60714 9.60323 9.19993 9.12487C9.78865 8.6512 10.083 7.9973 10.083 7.16314C10.083 6.64258 9.95388 6.20768 9.69563 5.85845C9.43738 5.50921 9.05845 5.20344 8.55883 4.94113M4.79107 7.79345C4.56716 7.79354 4.34825 7.72723 4.16202 7.60291C3.9758 7.47859 3.83062 7.30184 3.74485 7.09501C3.65907 6.88818 3.63656 6.66056 3.68015 6.44093C3.72374 6.22131 3.83148 6.01954 3.98975 5.86114C4.14801 5.70275 4.34969 5.59484 4.56928 5.55107C4.78887 5.5073 5.01651 5.52962 5.22341 5.61522C5.43031 5.70082 5.60718 5.84586 5.73166 6.03198C5.85613 6.2181 5.92262 6.43696 5.92271 6.66087C5.92259 6.96104 5.80326 7.24888 5.59096 7.46109C5.37866 7.6733 5.09078 7.79251 4.7906 7.79251M4.7906 4.17669C4.56667 4.17669 4.34777 4.11029 4.16159 3.98587C3.9754 3.86145 3.8303 3.68461 3.74462 3.47772C3.65895 3.27082 3.63656 3.04317 3.68028 2.82355C3.724 2.60393 3.83187 2.4022 3.99024 2.24389C4.14862 2.08558 4.35039 1.9778 4.57003 1.93417C4.78966 1.89054 5.01731 1.91303 5.22417 1.99878C5.43103 2.08454 5.6078 2.22972 5.73215 2.41596C5.85649 2.60219 5.92281 2.82112 5.92271 3.04505C5.92259 3.34523 5.80326 3.63306 5.59096 3.84527C5.37866 4.05748 5.09078 4.17669 4.7906 4.17669Z" fill="#74FBDE"/>
<path d="M35.4818 4.36149C35.7079 4.23424 36.0518 4.17077 36.5136 4.17108C36.8165 4.17086 37.1189 4.19406 37.4182 4.24049C37.7 4.28317 37.9774 4.35129 38.2469 4.44403L40.0436 1.02049C39.5611 0.712845 38.9643 0.467883 38.253 0.285607C37.5636 0.0992361 36.853 0.00323005 36.1389 0C35.1484 0 34.2384 0.207444 33.4089 0.622333C32.6018 1.02388 31.9257 1.64709 31.4599 2.41898C30.9809 3.20061 30.7417 4.08307 30.7423 5.06636C30.7355 5.94703 30.9656 6.81334 31.4088 7.57445C31.8514 8.34295 32.5089 8.96532 33.3006 9.36501C34.1176 9.78802 35.0615 9.99969 36.1323 10C36.831 9.99595 37.5265 9.9041 38.2024 9.72659C38.9302 9.539 39.5439 9.29575 40.0436 8.99686L38.2469 5.32711C38.0039 5.4418 37.7481 5.52697 37.4848 5.58083C37.1967 5.64082 36.9031 5.67052 36.6088 5.66946C36.1348 5.66946 35.7718 5.60396 35.5198 5.47296C35.2678 5.34196 35.1418 5.15578 35.1418 4.91441C35.1418 4.67273 35.2551 4.48858 35.4818 4.36196" fill="#74FBDE"/>
<path d="M60.7459 4.94113C61.1523 4.71227 61.465 4.42963 61.6838 4.09322C61.9027 3.7568 62.0121 3.3452 62.0121 2.8584C62.0121 2.0033 61.6862 1.33876 61.0343 0.864778C60.389 0.390798 59.4803 0.153809 58.3081 0.153809H52.1875V9.84241H59.0191C60.0049 9.84241 60.7942 9.60323 61.387 9.12487C61.9754 8.6512 62.2696 7.9973 62.2696 7.16314C62.2696 6.64258 62.1404 6.20768 61.8822 5.85845C61.6239 5.50921 61.2452 5.20344 60.7459 4.94113ZM57.0742 7.79345C56.8504 7.79317 56.6317 7.72655 56.4457 7.602C56.2597 7.47745 56.1148 7.30057 56.0294 7.09371C55.9439 6.88685 55.9216 6.65928 55.9654 6.43978C56.0092 6.22028 56.1171 6.01869 56.2755 5.86048C56.4338 5.70228 56.6355 5.59455 56.855 5.55093C57.0746 5.50731 57.3021 5.52975 57.5089 5.6154C57.7157 5.70106 57.8924 5.84609 58.0168 6.03217C58.1412 6.21826 58.2077 6.43704 58.2078 6.66087C58.2079 6.80971 58.1786 6.95712 58.1217 7.09465C58.0648 7.23218 57.9813 7.35712 57.876 7.46233C57.7707 7.56754 57.6457 7.65094 57.5081 7.70775C57.3705 7.76457 57.2231 7.79369 57.0742 7.79345ZM57.0742 4.17763C56.8503 4.17773 56.6313 4.11139 56.4451 3.98703C56.2588 3.86267 56.1137 3.68586 56.0279 3.47898C55.9422 3.27209 55.9197 3.04442 55.9634 2.82477C56.0071 2.60512 56.1149 2.40336 56.2732 2.245C56.4316 2.08664 56.6334 1.97881 56.853 1.93514C57.0727 1.89147 57.3003 1.91393 57.5072 1.99968C57.7141 2.08542 57.8909 2.2306 58.0153 2.41685C58.1396 2.60309 58.206 2.82204 58.2059 3.04599C58.2059 3.34612 58.0867 3.63396 57.8744 3.84618C57.6622 4.05841 57.3744 4.17763 57.0742 4.17763Z" fill="#74FBDE"/>
<path d="M76.53 5.20141C76.8753 4.96361 77.1576 4.64541 77.3526 4.27424C77.5437 3.89656 77.6403 3.47813 77.634 3.0549C77.6377 2.5437 77.4969 2.04184 77.2279 1.60717C76.9568 1.15883 76.5525 0.805374 76.0151 0.546811C75.4776 0.288249 74.8642 0.157248 74.1748 0.153809H67.7812V9.84241H72.0668V6.2552H72.0921C72.668 6.2552 73.0998 6.53456 73.3874 7.09326C73.675 7.65197 73.8626 8.56835 73.9502 9.84241H78.4008C78.3032 8.89882 78.0991 8.03903 77.7883 7.26303C77.4907 6.50841 77.0641 5.81128 76.5277 5.20282M72.5536 4.17904C72.3296 4.17913 72.1107 4.1128 71.9244 3.98844C71.7382 3.86408 71.593 3.68727 71.5072 3.48039C71.4215 3.2735 71.399 3.04583 71.4427 2.82618C71.4864 2.60653 71.5942 2.40476 71.7526 2.24641C71.9109 2.08805 72.1127 1.98022 72.3323 1.93655C72.552 1.89288 72.7797 1.91534 72.9865 2.00108C73.1934 2.08683 73.3702 2.23201 73.4946 2.41825C73.619 2.6045 73.6853 2.82345 73.6852 3.0474C73.6852 3.34753 73.566 3.63537 73.3538 3.84759C73.1415 4.05981 72.8537 4.17904 72.5536 4.17904Z" fill="#74FBDE"/>
<path d="M14.7061 0.153809H10.4141V9.84241H18.4645V7.16924H14.7061V0.153809Z" fill="#74FBDE"/>
<path d="M66.973 0.153809H62.6875V9.84241H66.973V0.153809Z" fill="#74FBDE"/>
<path d="M88.4387 2.53188C88.0038 1.76635 87.349 1.14921 86.559 0.760549C85.7505 0.354102 84.8299 0.150879 83.7972 0.150879H78.9531V9.84042H83.702C84.7516 9.84042 85.687 9.6436 86.5083 9.24997C87.3297 8.85635 87.9667 8.27794 88.4194 7.51476C88.8728 6.76102 89.11 5.89704 89.1051 5.01745C89.1089 4.14428 88.8788 3.28602 88.4387 2.53188ZM83.9426 6.16364C83.7186 6.16373 83.4997 6.0974 83.3134 5.97304C83.1272 5.84867 82.982 5.67187 82.8963 5.46498C82.8105 5.2581 82.7881 5.03043 82.8317 4.81078C82.8754 4.59112 82.9832 4.38936 83.1416 4.231C83.2999 4.07264 83.5017 3.96481 83.7214 3.92114C83.941 3.87748 84.1687 3.89994 84.3756 3.98568C84.5824 4.07142 84.7593 4.2166 84.8836 4.40285C85.008 4.5891 85.0743 4.80804 85.0742 5.03199C85.0742 5.33212 84.955 5.61996 84.7428 5.83218C84.5305 6.04441 84.2427 6.16364 83.9426 6.16364Z" fill="#74FBDE"/>
<path d="M22.1462 0.153809L18.7812 9.84241H23.0724L23.6309 8.20427H26.7801L27.3401 9.84241H31.6256L28.2602 0.153809H22.1462ZM25.2034 5.88518C24.9852 5.88527 24.7719 5.82063 24.5905 5.69943C24.4091 5.57823 24.2677 5.40592 24.1842 5.20433C24.1008 5.00273 24.079 4.78091 24.1217 4.56694C24.1644 4.35297 24.2696 4.15647 24.424 4.00232C24.5784 3.84817 24.7751 3.7433 24.9891 3.70098C25.2032 3.65867 25.425 3.68081 25.6264 3.76461C25.8279 3.8484 25.9999 3.99008 26.1208 4.17172C26.2417 4.35335 26.306 4.56677 26.3055 4.78496C26.3054 5.07726 26.1893 5.35756 25.9826 5.56429C25.776 5.77102 25.4957 5.88727 25.2034 5.88752" fill="#74FBDE"/>
</g>
<defs>
<clipPath id="clip0_501_1388">
<rect width="89.1057" height="10" fill="white"/>
</clipPath>
</defs>
</svg>
