<svg width="21" height="21" viewBox="0 0 21 21" fill="none" xmlns="http://www.w3.org/2000/svg">
<path d="M11.5028 4.77686C10.9793 6.3805 10.4152 9.32648 10.4104 9.35569L10.3096 9.33622C10.3144 9.307 10.8801 6.35453 11.4052 4.74439C12.3399 1.87796 14.3768 0.134719 14.398 0.116865L14.4646 0.194775C14.4451 0.212629 12.4294 1.93801 11.5028 4.77523V4.77686ZM13.1186 4.7866C10.8525 7.33815 10.4022 9.63 10.3974 9.65435L10.2966 9.63487C10.3015 9.61215 10.755 7.2927 13.0406 4.72005C15.6708 1.75784 18.2246 0.483691 18.2507 0.472329L18.2962 0.563224C18.2702 0.576209 15.7326 1.84225 13.1186 4.78822V4.7866ZM10.2543 9.35569C10.2478 9.32648 9.68373 6.3805 9.16192 4.77686C8.23532 1.93801 6.22119 0.212629 6.20005 0.196398L6.26671 0.118488C6.28622 0.136343 8.32471 1.87958 9.25943 4.74602C9.7845 6.35453 10.3502 9.30862 10.3551 9.33784L10.2543 9.35732V9.35569ZM10.2657 9.65435C10.2608 9.63162 9.81052 7.33977 7.54606 4.7866C4.93046 1.84062 2.39288 0.574586 2.36687 0.561601L2.41239 0.470706C2.4384 0.483691 4.99223 1.75784 7.62246 4.71842C9.90805 7.2927 10.3632 9.61052 10.3665 9.63325L10.2657 9.65273V9.65435ZM10.2705 10.2987V0.0146081H10.373V10.2987H10.2705ZM14.0533 5.31087C10.3323 7.9874 10.3665 10.2013 10.3681 10.2241L10.2657 10.2273C10.2624 10.1348 10.2218 7.94033 13.9932 5.22809C17.0087 3.05959 20.3119 1.5582 20.346 1.54197L20.3883 1.63449C20.3558 1.6491 17.0591 3.14724 14.0533 5.30924V5.31087ZM10.373 10.2273L10.2705 10.2241C10.2705 10.2013 10.3063 7.98578 6.58532 5.31087C3.57958 3.14886 0.284487 1.65072 0.250349 1.63611L0.292617 1.54359C0.325129 1.5582 3.62997 3.06121 6.64547 5.22971C10.4169 7.94195 10.3762 10.138 10.373 10.2289V10.2273ZM10.3226 14.9457C7.79964 14.9457 6.40488 15.2704 6.40488 15.4927C6.40488 15.7151 7.79964 16.0397 10.3226 16.0397C12.8455 16.0397 14.2387 15.7151 14.2387 15.4927C14.2387 15.2704 12.8439 14.9457 10.3226 14.9457ZM10.3226 16.142C8.37348 16.142 6.30247 15.9147 6.30247 15.4927C6.30247 15.0707 8.37348 14.8435 10.3226 14.8435C12.2717 14.8435 14.3427 15.0707 14.3427 15.4927C14.3427 15.9147 12.2717 16.142 10.3226 16.142ZM10.3226 4.42789C7.79964 4.42789 6.40488 4.75089 6.40488 4.97488C6.40488 5.19887 7.79964 5.52187 10.3226 5.52187C12.8455 5.52187 14.2387 5.19887 14.2387 4.97488C14.2387 4.75089 12.8439 4.42789 10.3226 4.42789ZM10.3226 5.62413C8.37348 5.62413 6.30247 5.39689 6.30247 4.97488C6.30247 4.55287 8.37348 4.32563 10.3226 4.32563C12.2717 4.32563 14.3427 4.55287 14.3427 4.97488C14.3427 5.39689 12.2717 5.62413 10.3226 5.62413ZM10.3226 0.10388C4.20869 0.10388 0.102414 0.735276 0.102414 1.32609C0.102414 1.91691 4.20869 2.54831 10.3226 2.54831C16.4365 2.54831 20.5427 1.91691 20.5427 1.32609C20.5427 0.735276 16.4365 0.10388 10.3226 0.10388ZM10.3226 2.64894C5.24907 2.64894 0 2.15389 0 1.32447C0 0.495053 5.24907 0 10.3226 0C15.3961 0 20.6452 0.495053 20.6452 1.32447C20.6452 2.15389 15.3961 2.64894 10.3226 2.64894ZM9.23832 15.7086C8.30359 18.575 6.26671 20.3183 6.24557 20.3361L6.17892 20.2582C6.19843 20.2404 8.21417 18.515 9.14076 15.6778C9.66421 14.0741 10.2283 11.1281 10.2332 11.0989L10.334 11.1184C10.3275 11.1476 9.76338 14.1001 9.23832 15.7102V15.7086ZM7.60132 15.7346C4.9711 18.6968 2.41727 19.9693 2.39126 19.9823L2.34573 19.8914C2.37174 19.8784 4.90933 18.6124 7.5233 15.6664C9.79101 13.1132 10.2397 10.8214 10.2446 10.7987L10.3453 10.8165C10.3404 10.8409 9.88692 13.1587 7.60132 15.733V15.7346ZM14.3768 20.3361C14.3573 20.3183 12.3188 18.575 11.3841 15.7086C10.859 14.1001 10.2933 11.146 10.2884 11.1168L10.3892 11.0973C10.3957 11.1265 10.9598 14.0725 11.4816 15.6761C12.4066 18.5134 14.4224 20.2404 14.4419 20.2566L14.3752 20.3345L14.3768 20.3361ZM18.2311 19.9839C18.2051 19.9709 15.6513 18.6968 13.0211 15.7362C10.7355 13.1619 10.2803 10.8441 10.2771 10.8198L10.3779 10.8019C10.3827 10.8246 10.833 13.1165 13.0975 15.6696C15.7131 18.6156 18.2506 19.8817 18.2766 19.8946L18.2311 19.9855V19.9839ZM10.2705 20.44V10.1559H10.373V20.44H10.2705ZM6.65035 15.2265C3.63485 17.395 0.331616 18.8964 0.297478 18.9127L0.255211 18.8201C0.287723 18.8055 3.58446 17.3058 6.5902 15.1438C10.3177 12.464 10.2771 10.2533 10.2754 10.2306L10.3779 10.2257C10.3811 10.3182 10.4217 12.5127 6.65035 15.2265ZM20.3509 18.9127C20.3184 18.898 17.0136 17.395 13.9981 15.2265C10.2267 12.5143 10.2673 10.3182 10.2705 10.2257L10.373 10.2306C10.373 10.2517 10.3372 12.4688 14.0582 15.1438C17.064 17.3058 20.359 18.8039 20.3932 18.8201L20.3509 18.9127ZM10.3226 17.9079C4.20869 17.9079 0.102414 18.5393 0.102414 19.1302C0.102414 19.721 4.20869 20.3524 10.3226 20.3524C16.4365 20.3524 20.5427 19.721 20.5427 19.1302C20.5427 18.5393 16.4365 17.9079 10.3226 17.9079ZM10.3226 20.453C5.24907 20.453 0 19.9579 0 19.1285C0 18.2991 5.24907 17.8041 10.3226 17.8041C15.3961 17.8041 20.6452 18.2991 20.6452 19.1285C20.6452 19.9579 15.3961 20.453 10.3226 20.453Z" fill="#74FBDE"/>
</svg>
