<svg width="21" height="21" viewBox="0 0 21 21" fill="none" xmlns="http://www.w3.org/2000/svg">
<path d="M0.95346 14.0036C1.01244 14.0642 1.07633 14.1214 1.14022 14.1754C1.18445 14.3357 1.23196 14.496 1.28439 14.6481C1.41381 15.0276 1.5678 15.3907 1.74473 15.7392C1.35975 15.1356 1.03374 14.4894 0.781446 13.8073C0.835508 13.8744 0.891206 13.9398 0.95346 14.0036ZM0.232628 9.08985C0.317817 9.45298 0.501302 9.78668 0.787995 10.0762C0.835504 10.1236 0.88793 10.1727 0.94363 10.2201C0.923972 10.3445 0.90595 10.4704 0.891205 10.5947C0.887929 10.6242 0.884654 10.652 0.883016 10.6814C0.86991 10.8057 0.856801 10.9317 0.848609 11.056C0.843695 11.11 0.842057 11.1656 0.83878 11.2196C0.833866 11.3226 0.828948 11.4257 0.825672 11.5287C0.825672 11.5811 0.822402 11.6334 0.822402 11.6858C0.822402 11.7152 0.820762 11.7447 0.820762 11.7725C0.820762 11.8166 0.824033 11.8592 0.825672 11.9033C0.82731 12.0227 0.830588 12.1438 0.837141 12.2632C0.840417 12.3286 0.845335 12.3941 0.850249 12.4595C0.858441 12.5805 0.87155 12.7016 0.884656 12.821C0.891209 12.8815 0.897763 12.9437 0.905954 13.0042C0.923975 13.1318 0.943633 13.2594 0.966568 13.387C0.976398 13.4393 0.984586 13.49 0.994416 13.5424C1.01899 13.6618 1.04684 13.7812 1.07469 13.9006C1.05339 13.8793 1.02882 13.8597 1.00752 13.8384C0.848615 13.6781 0.720832 13.5047 0.619261 13.3215C0.322739 12.3679 0.162185 11.357 0.162185 10.3068C0.162185 9.89464 0.190038 9.49061 0.237547 9.09148L0.232628 9.08985ZM1.87251 4.67006C1.85613 4.7224 1.84138 4.77311 1.82828 4.82545C1.7349 4.93996 1.64316 5.05609 1.55633 5.17387C1.65627 5.00375 1.76111 4.83364 1.87251 4.67006ZM4.00059 2.36529C4.36592 2.14774 4.76893 1.98253 5.21126 1.87129C5.02122 2.0774 4.89508 2.28678 4.84429 2.48307C3.75158 3.01141 2.81451 3.71478 2.05109 4.57028C2.10187 4.42797 2.17396 4.28239 2.25751 4.13681C2.76372 3.4776 3.35021 2.88383 4.00059 2.36529ZM6.16799 1.04688C6.22206 1.04688 6.27939 1.05506 6.34001 1.07142C5.96157 1.25953 5.62737 1.47708 5.37344 1.71099C5.08019 1.77152 4.80333 1.85657 4.54121 1.96453C5.0507 1.61121 5.59625 1.30369 6.16635 1.04688H6.16799ZM3.61069 17.918C4.26107 18.2582 5.1015 18.4839 6.09591 18.5723C6.65291 19.2724 7.28363 19.7925 7.97333 20.123C7.7276 20.0902 7.49661 20.0444 7.28036 19.9888C5.91079 19.5586 4.66572 18.8454 3.61233 17.918H3.61069ZM4.48551 15.3319C4.53139 15.4873 4.5789 15.6394 4.62968 15.7882C4.97044 16.7975 5.41932 17.6726 5.96157 18.3972C4.76074 18.2795 3.78926 17.9621 3.13396 17.4747C2.99963 17.3406 2.8702 17.2015 2.74406 17.0608C2.1805 16.3607 1.74309 15.556 1.44001 14.6645C1.40233 14.5516 1.36957 14.4404 1.3368 14.3291C2.07074 14.8657 3.15035 15.2141 4.48551 15.3335V15.3319ZM1.08616 10.3379C1.73654 10.8303 2.71457 11.1476 3.91704 11.2572C3.92031 12.6198 4.09234 13.9218 4.42818 15.129C3.06516 15.0031 1.97245 14.6383 1.26309 14.0707C0.9551 12.8815 0.894482 11.6269 1.08616 10.3396V10.3379ZM6.98384 1.84185C6.35311 2.17718 5.7486 2.57303 5.18505 3.0245C5.18013 3.01959 5.17357 3.01469 5.16866 3.00978C5.0376 2.87728 4.9901 2.71534 5.02122 2.5305C5.6372 2.23934 6.29577 2.01033 6.9822 1.84185H6.98384ZM7.02807 1.72081C6.34165 1.87948 5.68307 2.1003 5.06545 2.38165C5.13426 2.19681 5.27187 2.00216 5.47337 1.81077C5.95665 1.7159 6.47762 1.68809 7.02807 1.72081ZM6.5071 1.1303C6.7168 1.2219 6.95926 1.39202 7.22629 1.62921C6.66765 1.57523 6.1385 1.58831 5.64375 1.66519C5.88294 1.47054 6.17618 1.28733 6.5071 1.1303ZM7.84392 0.562697C7.39504 0.647756 6.93469 0.793339 6.50874 0.987993C6.46779 0.971635 6.42683 0.960186 6.38751 0.948736C6.89373 0.736089 7.42125 0.564333 7.96514 0.435109C7.92419 0.474367 7.88487 0.515261 7.84556 0.562697H7.84392ZM20.1635 7.84505C20.1111 7.68965 20.0521 7.53262 19.9899 7.37722C19.9931 7.31179 19.9915 7.248 19.9899 7.1842C20.0816 7.46555 20.1602 7.75344 20.2274 8.04624C20.2077 7.97917 20.1864 7.91211 20.1635 7.84505ZM20.4387 11.2359C20.3454 11.9671 19.9145 12.7686 19.1888 13.5718C19.1986 12.6509 19.0331 11.6776 18.694 10.6749C18.6432 10.5244 18.5875 10.3723 18.5302 10.2234C19.3411 9.35157 19.8309 8.47317 19.9587 7.66675C19.9931 7.75835 20.0292 7.84995 20.0619 7.94319C20.3388 8.76106 20.4797 9.59693 20.483 10.4344C20.4797 10.6667 20.4682 10.8973 20.4502 11.1247C20.4469 11.1623 20.4453 11.1983 20.4404 11.2359H20.4387ZM15.5994 18.6328C16.425 18.2026 17.1524 17.7168 17.7438 17.2048C17.7143 17.2375 17.6849 17.2751 17.6537 17.3078L17.6357 17.3258C17.4522 17.5074 17.3326 17.6268 17.2376 17.7184C17.136 17.81 17.0099 17.9212 16.7986 18.1061C16.6102 18.2549 16.4922 18.3482 16.4037 18.4169C16.3104 18.4839 16.1891 18.5706 16.0024 18.7048L15.9942 18.7097C15.8222 18.8209 15.7108 18.8929 15.6272 18.9452C15.5666 18.9812 15.4896 19.027 15.3897 19.0859C15.4765 18.9616 15.5469 18.8111 15.601 18.6344L15.5994 18.6328ZM7.10999 18.6148C8.19614 18.6148 9.36257 18.4807 10.5781 18.2173C10.9533 18.9812 11.3154 19.5472 11.6528 19.9005C10.4913 20.1475 9.36749 20.2407 8.39928 20.1671C7.63914 19.8694 6.94616 19.3378 6.33673 18.5886C6.58738 18.605 6.84623 18.6148 7.10999 18.6148ZM5.58478 15.3793C6.74793 15.3793 7.99627 15.2353 9.2954 14.954C9.34291 15.1029 9.39206 15.2501 9.4412 15.3973C9.78687 16.4196 10.1424 17.3144 10.4979 18.0587C8.96284 18.3891 7.47695 18.515 6.19748 18.4185C5.64048 17.6906 5.18176 16.7975 4.82954 15.7621C4.78367 15.6263 4.74108 15.4873 4.70012 15.3482C4.98682 15.3678 5.2817 15.3793 5.58314 15.3793H5.58478ZM8.20433 10.9235C8.50413 12.2665 8.85143 13.5554 9.23314 14.7593C7.59654 15.1127 6.01072 15.2484 4.64115 15.147C4.30203 13.9415 4.12346 12.6394 4.11199 11.2736C5.3374 11.3586 6.74793 11.2392 8.20269 10.9252L8.20433 10.9235ZM4.59855 7.14331C4.7804 7.15639 4.96716 7.16294 5.16211 7.16294C5.89113 7.16294 6.67257 7.07297 7.48514 6.89795C7.64733 8.12803 7.8734 9.41372 8.1601 10.7207C6.71516 11.0331 5.31938 11.1509 4.11527 11.0642C4.12018 9.73433 4.28401 8.41428 4.60019 7.14331H4.59855ZM4.42654 7.12859C4.10217 8.4012 3.93014 9.71961 3.91704 11.0495C2.71457 10.9382 1.74965 10.6176 1.12056 10.1204C1.33517 8.8592 1.77585 7.63239 2.43443 6.47101C2.89478 6.82106 3.57957 7.0468 4.42654 7.12695V7.12859ZM5.90423 3.50377C5.29972 4.50648 4.81972 5.65969 4.47732 6.9323C3.6451 6.85542 2.97669 6.63623 2.536 6.29599C3.22242 5.13134 4.0907 4.10245 5.12115 3.23714C5.30955 3.37455 5.57658 3.46615 5.90587 3.50377H5.90423ZM6.01236 3.32875C5.70601 3.2993 5.45863 3.22079 5.28498 3.10138C5.85673 2.63846 6.4727 2.23443 7.11489 1.89256C6.71844 2.31295 6.3482 2.79222 6.01236 3.32711V3.32875ZM7.21974 3.24041C6.84295 3.31893 6.47925 3.35165 6.1598 3.33693C6.50874 2.7775 6.89373 2.2786 7.30657 1.8484C7.2525 2.24916 7.22302 2.7137 7.21974 3.24041ZM7.35408 1.59813C7.09688 1.3544 6.86425 1.17447 6.65783 1.0616C7.00514 0.911114 7.3721 0.793338 7.73416 0.716458C7.58835 0.942191 7.45893 1.23663 7.35244 1.59813H7.35408ZM7.48842 1.53597C7.60965 1.17938 7.75053 0.889849 7.91272 0.682109C8.25511 0.623222 8.57784 0.605228 8.8629 0.624857C8.39272 0.857133 7.93075 1.16302 7.48842 1.53597ZM7.58343 1.59649C8.06507 1.20064 8.56802 0.880035 9.08243 0.647759C9.39369 0.695196 9.63779 0.799883 9.78359 0.948736C9.88516 1.05179 9.93595 1.17283 9.93923 1.3086C9.14632 1.32332 8.35668 1.42147 7.58507 1.59649H7.58343ZM13.2141 3.75568C12.1083 3.00814 10.9599 2.44708 9.79834 2.08558C9.99329 1.86148 10.108 1.63738 10.1391 1.42801C11.4923 1.43455 12.8176 1.67174 14.0791 2.13465C14.0267 2.63846 13.7285 3.19625 13.2141 3.75404V3.75568ZM16.3087 6.54136C15.4552 5.52719 14.4706 4.62916 13.3812 3.87018C13.9005 3.30421 14.2069 2.73333 14.2724 2.20826C15.506 2.6859 16.6069 3.35492 17.5472 4.19896C17.4817 4.92687 17.0525 5.73493 16.3087 6.54136ZM9.66892 15.3351C9.61977 15.1928 9.57227 15.0472 9.5264 14.9033C10.9615 14.5745 12.3737 14.0969 13.7252 13.4818C13.9939 13.3591 14.2576 13.2316 14.5148 13.1023C14.564 13.2381 14.6131 13.382 14.6639 13.5293C15.0129 14.5614 15.2602 15.4987 15.3995 16.3215C15.1554 16.4458 14.9031 16.5668 14.6492 16.683C13.3861 17.2588 12.0657 17.7037 10.724 18.0096C10.3717 17.2637 10.0179 16.3656 9.66892 15.3351ZM8.30426 10.8499L8.31573 10.9006C8.62372 12.2419 8.9743 13.5309 9.35929 14.7332L9.42319 14.9278C9.47069 15.0767 9.51983 15.2239 9.56898 15.3695C9.91629 16.3935 10.2702 17.2882 10.6191 18.0325L10.642 18.0832C10.642 18.0832 10.6453 18.0897 10.6469 18.093L10.6551 18.1126L10.6945 18.1928C10.855 18.5265 11.0123 18.8225 11.1663 19.0794C11.0008 18.8111 10.8304 18.4987 10.6551 18.1421L10.6207 18.0701C10.2587 17.3193 9.895 16.4082 9.54113 15.3629C9.48707 15.2026 9.43465 15.0407 9.38059 14.8771L9.34946 14.7839C8.95465 13.5538 8.60078 12.2305 8.29443 10.8532H8.30426V10.8499ZM7.45893 6.70493C6.45633 6.92085 5.48812 7.00427 4.64934 6.94702C4.98354 5.67113 5.45371 4.51793 6.0484 3.51686C6.12048 3.52176 6.19584 3.52504 6.27283 3.52504C6.571 3.52504 6.88882 3.48905 7.21974 3.42035C7.22466 4.37235 7.30493 5.47485 7.46056 6.70493H7.45893ZM7.35899 3.39091C7.73415 3.30421 8.1044 3.17826 8.45826 3.01632C8.52379 2.98687 8.58604 2.9558 8.64829 2.92472C9.31014 3.6379 9.99821 4.52448 10.6945 5.56154C10.5421 5.63842 10.3848 5.7153 10.2243 5.78891C9.39205 6.1684 8.52215 6.4612 7.64077 6.66404C7.47204 5.43886 7.37701 4.338 7.35899 3.39091ZM8.52051 2.79058C8.473 2.81512 8.42385 2.83802 8.37143 2.86256C8.04378 3.01141 7.70302 3.12755 7.35735 3.20933C7.35244 2.66954 7.37538 2.19518 7.42289 1.79278C7.76856 2.05287 8.13716 2.38819 8.52215 2.78895L8.52051 2.79058ZM9.49527 2.12647C9.27411 2.34075 8.98578 2.54522 8.64666 2.72516C8.26822 2.33912 7.90453 2.01851 7.5605 1.76333C8.19123 1.81404 8.83997 1.93509 9.49527 2.12811V2.12647ZM9.59848 2.02342C8.97103 1.84185 8.35014 1.72572 7.74399 1.6701C8.46154 1.52125 9.19382 1.43946 9.92776 1.42965C9.89499 1.61449 9.78524 1.81895 9.59848 2.02342ZM10.8599 5.47648C10.1522 4.44596 9.45267 3.56593 8.77444 2.85765C9.14796 2.65809 9.46741 2.42745 9.70168 2.18863C10.8566 2.5534 11.9985 3.12101 13.0994 3.87508C12.5375 4.44923 11.7659 5.00048 10.8599 5.47648ZM14.4444 12.9093C14.1839 13.0418 13.9169 13.171 13.6466 13.2937C12.3016 13.9071 10.8927 14.3815 9.4625 14.7086C9.07751 13.508 8.72693 12.219 8.41894 10.8761C9.69677 10.5833 10.9517 10.1596 12.1541 9.61165C12.395 9.50206 12.6309 9.38919 12.8569 9.27305C13.4778 10.4999 14.0103 11.7218 14.4444 12.9093ZM12.8569 9.04078C12.6767 8.69073 12.4933 8.34558 12.3049 8.00535C12.4949 8.34395 12.6817 8.68745 12.8635 9.0375L12.8569 9.04078ZM16.3087 6.83906C17.1655 7.89739 17.8356 9.01951 18.3041 10.1776C17.3965 11.1182 16.1351 12.0244 14.6508 12.7997C14.2167 11.6154 13.6793 10.3968 13.0519 9.17163C14.3723 8.47971 15.4962 7.67493 16.3087 6.83743V6.83906ZM12.9552 8.98843C12.3393 7.80415 11.6725 6.67712 10.9697 5.64006C11.9002 5.15097 12.6915 4.58337 13.2665 3.99123C14.3494 4.75512 15.3291 5.65969 16.1777 6.67876C15.3749 7.50808 14.2642 8.30469 12.9569 8.98843H12.9552ZM8.27149 10.6978C8.27149 10.6978 8.26494 10.6978 8.26331 10.6994C8.16665 10.261 8.07818 9.82594 7.99627 9.3941C8.08146 9.82594 8.1732 10.2594 8.27314 10.6978H8.27149ZM7.66862 6.85869C8.57293 6.65095 9.4625 6.34997 10.3128 5.9623C10.4782 5.88706 10.6437 5.8069 10.8042 5.72511C11.4956 6.76709 12.1541 7.89902 12.7636 9.08821C12.5391 9.20271 12.3049 9.31558 12.0689 9.42354C10.8796 9.96497 9.63779 10.3854 8.37471 10.6732C8.08146 9.37119 7.84391 8.08714 7.66862 6.85705V6.85869ZM15.5207 16.4049L15.5093 16.3395C15.5093 16.3395 15.5093 16.3378 15.5093 16.3362L15.4978 16.2691H15.4962C15.3536 15.4496 15.1095 14.5189 14.7622 13.4949C14.7114 13.3493 14.6606 13.2005 14.6082 13.0549L14.5968 13.0238C14.5968 13.0189 14.5935 13.0156 14.5918 13.0107L14.5591 12.9191L14.5378 12.8619C14.1036 11.6776 13.5696 10.4541 12.9503 9.22725L12.9274 9.18145L12.9356 9.17818C13.5778 10.4279 14.1282 11.676 14.5689 12.8848L14.6164 13.014C14.6721 13.1694 14.7262 13.3232 14.7753 13.4704C15.1292 14.514 15.3766 15.466 15.5109 16.2969L15.5191 16.3526L15.5224 16.3722C15.5617 16.6241 15.5895 16.8629 15.6076 17.087C15.5895 16.8858 15.5617 16.6732 15.5256 16.4491L15.5191 16.4065L15.5207 16.4049ZM15.6026 16.2135C15.465 15.3907 15.2226 14.4584 14.8753 13.436C14.8277 13.2937 14.7753 13.1449 14.7196 12.9944C16.2022 12.2207 17.4637 11.3177 18.3795 10.3772C18.4302 10.5097 18.4794 10.6438 18.5253 10.7779C18.8758 11.8134 19.0413 12.8144 19.0184 13.755C18.1714 14.6367 16.9902 15.484 15.601 16.2135H15.6026ZM19.1838 13.8122C19.7048 13.2545 20.0832 12.6918 20.3093 12.152C20.3044 12.1863 20.2978 12.2207 20.2929 12.2567V12.2632C20.1881 12.6918 20.0996 13.0614 19.9686 13.4622C19.8391 13.8433 19.6966 14.1787 19.5344 14.5631C19.3788 14.8673 19.2674 15.0865 19.1593 15.2795C19.0167 15.5314 18.889 15.731 18.6793 16.045C18.6563 16.0761 18.6301 16.1088 18.6055 16.1416C18.9496 15.4529 19.1445 14.671 19.1838 13.8122ZM15.6321 16.3918C16.9935 15.6819 18.155 14.8542 19.0069 13.9922C18.9479 14.9785 18.6809 15.8569 18.2075 16.5996C17.5702 17.2637 16.6855 17.9033 15.6452 18.4545C15.7632 17.9327 15.7599 17.2408 15.6321 16.3918ZM19.8424 7.36904C19.772 8.19182 19.2903 9.10784 18.4483 10.0239C17.9748 8.86738 17.2999 7.75017 16.4414 6.70002C17.1835 5.89851 17.621 5.09208 17.7143 4.35273C18.6498 5.23112 19.3657 6.24529 19.8424 7.36904ZM19.849 7.05825C19.3591 5.98029 18.6481 5.00703 17.7324 4.16462C17.7487 3.79494 17.6717 3.45306 17.5112 3.14064C18.4745 4.10246 19.2412 5.25893 19.7572 6.54136C19.808 6.7082 19.8424 6.87995 19.8506 7.05988L19.849 7.05825ZM15.3848 18.7408C15.2865 19.0221 15.1407 19.22 14.9473 19.3247C14.926 19.3362 14.9064 19.346 14.8867 19.3558C14.8032 19.3967 14.6901 19.4507 14.5165 19.5341C14.3461 19.6077 14.2347 19.6568 14.1544 19.6895C14.0774 19.7206 13.9775 19.7598 13.8301 19.8171L13.758 19.8432C13.6138 19.894 13.5155 19.9267 13.4434 19.9528C13.3779 19.9725 13.2944 19.9986 13.1764 20.0346L13.0928 20.0608C12.9241 20.1066 12.8143 20.1344 12.7324 20.1557C12.6784 20.1688 12.6096 20.1835 12.5211 20.2048C12.3655 20.2326 12.182 20.1524 11.9772 19.9676C12.9782 19.7353 13.9611 19.4016 14.9031 18.973C15.0669 18.8978 15.2291 18.8193 15.3864 18.7408H15.3848ZM14.8621 18.8422C13.8972 19.2806 12.8881 19.6224 11.8625 19.8563C11.5349 19.5128 11.1777 18.9452 10.8009 18.1682C12.1361 17.8624 13.45 17.4174 14.7065 16.8449C14.949 16.7337 15.1914 16.6159 15.4273 16.4965C15.5617 17.3635 15.5666 18.0586 15.4405 18.5641C15.2537 18.659 15.0587 18.7538 14.8621 18.8438V18.8422ZM17.0918 2.74642C17.4014 3.11283 17.5571 3.53648 17.5554 4.00758C16.6118 3.17989 15.5125 2.52396 14.2839 2.05777C14.2953 1.69464 14.1872 1.36749 13.9578 1.0845L13.9742 1.08941L13.8448 0.95855L13.8432 0.956913L13.8333 0.947099C13.7269 0.840775 13.604 0.7459 13.4664 0.659206C14.8228 1.10086 16.0532 1.81895 17.0934 2.74806L17.0918 2.74642ZM12.7275 0.446561C13.1273 0.585599 13.4533 0.773709 13.6826 1.00762H13.6843C13.9578 1.28733 14.0922 1.61612 14.0889 1.9858C12.8291 1.53433 11.5087 1.30369 10.1588 1.30369H10.1506C10.1473 1.16465 10.1014 1.0387 10.0162 0.927471H10.0261L9.95562 0.85386L9.93596 0.834232H9.93268C9.79179 0.701736 9.58537 0.601954 9.32652 0.541432C9.89008 0.317335 10.4618 0.196292 11.0254 0.181571C11.0287 0.181571 11.0319 0.181571 11.0352 0.181571C11.6135 0.220828 12.1803 0.310796 12.7275 0.443291V0.446561ZM10.2145 0.158668C9.90646 0.222462 9.56735 0.330424 9.11028 0.503813C8.80065 0.462919 8.43696 0.471097 8.05525 0.528348C8.14371 0.441653 8.19777 0.399124 8.26986 0.364773C8.89894 0.235549 9.54932 0.166848 10.2145 0.160305V0.158668ZM1.97244 4.84836C2.73914 3.93725 3.69752 3.19298 4.81971 2.63028C4.80661 2.82657 4.87051 3.00487 5.01139 3.14718C5.01467 3.15045 5.01958 3.15372 5.02285 3.15699C3.98912 4.0174 3.11431 5.03974 2.41969 6.19948C2.39512 6.17658 2.3689 6.15368 2.34597 6.13242C1.99702 5.7791 1.87251 5.34562 1.97244 4.84836ZM0.912503 6.47101C1.15005 5.9852 1.44329 5.52065 1.78732 5.079C1.74473 5.53864 1.89217 5.95412 2.22146 6.28781C2.25259 6.31889 2.28371 6.3467 2.31484 6.37614C1.65299 7.52771 1.20411 8.74634 0.979667 9.99932C0.945264 9.96824 0.910862 9.9388 0.878097 9.90608C0.514406 9.5364 0.321097 9.1062 0.298162 8.62366C0.424307 7.87449 0.632364 7.15312 0.912503 6.47101ZM10.6682 20.4452C10.4766 20.4485 10.3439 20.4517 10.2407 20.4517C10.1309 20.4517 10.0211 20.4468 9.91138 20.4436C9.87042 20.4419 9.82619 20.4403 9.77868 20.4387C9.63943 20.4321 9.50181 20.4207 9.3642 20.4076C9.19382 20.388 9.02509 20.3569 8.85799 20.3143C8.94482 20.316 9.03164 20.3192 9.12174 20.3192C9.9507 20.3192 10.8386 20.2162 11.7642 20.015C11.9018 20.141 12.0329 20.2276 12.159 20.2767C12.0853 20.2914 12.0247 20.3013 11.9756 20.3111C11.8904 20.3242 11.7773 20.3405 11.6037 20.3667L11.5824 20.37C11.3809 20.3912 11.2515 20.4043 11.1532 20.4141C11.0549 20.4207 10.9238 20.4288 10.7207 20.4419C10.7027 20.4419 10.6846 20.4419 10.6666 20.4419L10.6682 20.4452ZM20.6419 10.3052C20.6419 4.62262 16.0122 0 10.3209 0C8.74659 0 7.25415 0.354959 5.91734 0.987993H5.89113L5.89604 0.997807C5.03596 1.40674 4.24141 1.93346 3.53205 2.5534C3.45178 2.6172 3.37315 2.68426 3.29779 2.7546L3.26502 2.78568C3.25191 2.79876 3.23881 2.81021 3.2257 2.8233L3.20605 2.84129L3.21096 2.84784C3.06679 2.98524 2.92754 3.12428 2.79157 3.26986L2.78502 3.26495L2.767 3.28458C2.74734 3.30421 2.72931 3.32548 2.71129 3.3451L2.67526 3.38436C2.58188 3.48741 2.49669 3.58883 2.41805 3.69024C1.52521 4.75021 0.8437 5.99174 0.434139 7.35105C0.373524 7.53916 0.316184 7.72891 0.268674 7.92193H0.267035L0.247377 8.00698L0.230988 8.08386C0.22935 8.09531 0.226077 8.10676 0.224439 8.11821L0.193312 8.26216H0.201501C0.199863 8.27852 0.199868 8.29324 0.196591 8.30796C0.0688083 8.95572 0 9.62473 0 10.3101C0 11.1754 0.108128 12.0162 0.31127 12.821H0.303071L0.340758 12.9666C0.355502 13.0205 0.376793 13.0729 0.396452 13.1269C1.62677 17.4436 5.60935 20.617 10.3226 20.617C12.0034 20.617 13.5909 20.2113 14.9949 19.4965L15.0047 19.5145V19.4899C18.3483 17.7838 20.6452 14.3095 20.6452 10.3101L20.6419 10.3052Z" fill="#74FBDE"/>
</svg>
