<svg width="94" height="10" viewBox="0 0 94 10" fill="none" xmlns="http://www.w3.org/2000/svg">
<g clip-path="url(#clip0_501_1400)">
<path d="M6.82088 7.49027L5.65336 10.0312L3.85903 6.15664L3.87628 6.13938L0 4.35159L2.53628 3.18469L2.07044 2.17867L10.0185 0L10.007 0.0115044L7.82734 7.96168L6.82088 7.49027ZM12.6353 8.23186V1.79354H14.7517L16.27 7.48451H16.4196V1.79354H17.5123V8.23186H15.4073L13.889 2.5408H13.7337V8.23186H12.6411H12.6353ZM18.4152 8.23186V1.79354H22.5215V2.79381H19.5309V4.48381H22.2627V5.48407H19.5309V7.22009H22.5675V8.22035H18.4152V8.23186ZM22.7458 8.23186L24.6897 4.98398L22.7746 1.79354H24.0341L25.4028 4.20212H25.5581L26.9212 1.79354H28.1921L26.277 4.98398L28.2094 8.23186H26.9499L25.5581 5.76575H25.4028L24.0111 8.23186H22.7401H22.7458ZM30.2165 8.23186V2.79956H28.2957V1.79929H33.2474V2.79956H31.3265V8.23761H30.2223L30.2165 8.23186ZM35.7147 8.36407C35.2604 8.36407 34.852 8.26637 34.4954 8.06513C34.1388 7.86398 33.8513 7.57655 33.6385 7.19142C33.4258 6.80619 33.3222 6.33487 33.3222 5.77726V4.24814C33.3222 3.4146 33.558 2.77655 34.0238 2.32814C34.4896 1.88549 35.1165 1.66133 35.8987 1.66133C36.6809 1.66133 37.2905 1.87398 37.7104 2.29363C38.1302 2.71327 38.3429 3.27664 38.3429 3.98947V4.02398H37.256V3.9492C37.256 3.70204 37.21 3.48363 37.1065 3.28814C37.0073 3.09124 36.851 2.92894 36.6579 2.82248C36.4565 2.70752 36.2035 2.65009 35.8929 2.65009C35.4386 2.65009 35.082 2.78805 34.8233 3.06973C34.5644 3.35142 34.4321 3.7308 34.4321 4.22513V5.78876C34.4321 6.27159 34.5644 6.65673 34.8233 6.94991C35.082 7.23734 35.4443 7.38106 35.9159 7.38106C36.3875 7.38106 36.7212 7.2546 36.9396 7.00168C37.1525 6.74876 37.2618 6.42681 37.2618 6.03593V5.92673H35.6342V4.98973H38.3487V8.22611H37.3365V7.59381H37.1812C37.1295 7.70301 37.0547 7.81796 36.9512 7.93867C36.8476 8.05938 36.6981 8.15717 36.5026 8.23761C36.3071 8.31805 36.0482 8.35832 35.7147 8.35832V8.36407ZM39.1884 8.23186V1.79354H43.2947V2.79381H40.3041V4.48381H43.0359V5.48407H40.3041V7.22009H43.3407V8.22035H39.1884V8.23186ZM43.9388 8.23186V1.79354H46.0552L47.5735 7.48451H47.7231V1.79354H48.8158V8.23186H46.7109L45.1926 2.5408H45.0373V8.23186H43.9446H43.9388ZM52.8473 8.23186L51.1335 1.79354H52.2722L53.7273 7.52478H53.8538L55.3146 1.79354H56.4534L54.7337 8.23186H52.8358H52.8473ZM56.9019 8.23186V1.79354H61.0082V2.79381H58.0177V4.48381H60.7495V5.48407H58.0177V7.22009H61.0542V8.22035H56.9019V8.23186ZM61.6524 8.23186V1.79354H63.7689L65.2871 7.48451H65.4366V1.79354H66.5294V8.23186H64.4244L62.9061 2.5408H62.7509V8.23186H61.6581H61.6524ZM68.9506 8.23186V2.79956H67.0297V1.79929H71.9815V2.79956H70.0606V8.23761H68.9564L68.9506 8.23186ZM74.9204 8.36407C74.4027 8.36407 73.9598 8.27212 73.5918 8.08239C73.2237 7.89265 72.9362 7.62248 72.7349 7.26611C72.5335 6.90973 72.4358 6.49009 72.4358 5.99566V1.79354H73.54V6.02442C73.54 6.45557 73.6608 6.78327 73.8966 7.01894C74.1324 7.2546 74.4774 7.36956 74.9204 7.36956C75.3632 7.36956 75.7082 7.2546 75.944 7.01894C76.1798 6.78327 76.3006 6.45557 76.3006 6.02442V1.79354H77.4048V5.99566C77.4048 6.48434 77.3071 6.90973 77.1115 7.26611C76.9159 7.62248 76.6284 7.89265 76.2546 8.08239C75.8808 8.27212 75.4379 8.36407 74.9204 8.36407ZM78.279 8.23186V1.79354H81.0281C81.4306 1.79354 81.7872 1.86248 82.0863 2.00619C82.3853 2.14991 82.6211 2.3454 82.7879 2.59832C82.9547 2.85124 83.041 3.15593 83.041 3.5123V3.61584C83.041 4.01248 82.9432 4.33434 82.7534 4.57009C82.5636 4.8115 82.3335 4.98398 82.0633 5.09319V5.24265C82.3048 5.25416 82.4888 5.34035 82.6268 5.48982C82.7649 5.64504 82.8339 5.84619 82.8339 6.10487V8.23186H81.7296V6.26584C81.7296 6.11062 81.6894 5.98991 81.6032 5.89221C81.5227 5.79451 81.3846 5.7485 81.2005 5.7485H79.3774V8.23186H78.2618H78.279ZM79.3947 4.74823H80.9245C81.2408 4.74823 81.4939 4.66204 81.6721 4.49531C81.8504 4.32858 81.9425 4.09867 81.9425 3.81699V3.73655C81.9425 3.44912 81.8562 3.2192 81.6779 3.05248C81.4996 2.88575 81.2466 2.79956 80.9245 2.79956H79.3947V4.74823ZM83.7253 8.23186V1.79354H87.8317V2.79381H84.8411V4.48381H87.5728V5.48407H84.8411V7.22009H87.8777V8.22035H83.7253V8.23186ZM90.6958 8.36407C90.2069 8.36407 89.7698 8.27788 89.3959 8.09965C89.0164 7.92717 88.7231 7.67425 88.5103 7.3408C88.2975 7.00743 88.1882 6.60504 88.1882 6.12788V5.88646H89.281V6.12788C89.281 6.55327 89.4074 6.86947 89.6663 7.07637C89.925 7.28336 90.2644 7.38681 90.6958 7.38681C91.1271 7.38681 91.4606 7.30062 91.6792 7.12239C91.8977 6.94416 92.0127 6.71425 92.0127 6.43257C92.0127 6.24283 91.961 6.0877 91.8574 5.9669C91.754 5.84619 91.5987 5.7485 91.4031 5.67956C91.2076 5.61053 90.966 5.53584 90.6785 5.46681L90.4024 5.40938C89.9768 5.31159 89.6145 5.18513 89.304 5.03566C88.9934 4.88619 88.7576 4.6908 88.5908 4.44938C88.424 4.20788 88.3435 3.89752 88.3435 3.5123C88.3435 3.12717 88.4355 2.79381 88.6196 2.51788C88.8036 2.24195 89.0624 2.0292 89.4017 1.88549C89.7411 1.73602 90.1321 1.66708 90.5865 1.66708C91.0408 1.66708 91.4434 1.74177 91.7999 1.89699C92.1565 2.05221 92.4383 2.28212 92.6396 2.58681C92.8409 2.8915 92.9502 3.27664 92.9502 3.73655V4.04124H91.8574V3.73655C91.8574 3.47212 91.8057 3.25938 91.7022 3.10416C91.5987 2.94327 91.4491 2.82823 91.2594 2.75354C91.0696 2.67876 90.8452 2.64434 90.5865 2.64434C90.2069 2.64434 89.9193 2.71903 89.7238 2.86274C89.5282 3.01221 89.4304 3.2192 89.4304 3.48938C89.4304 3.66177 89.4765 3.80549 89.5627 3.92619C89.649 4.0469 89.7813 4.14469 89.9596 4.21938C90.1321 4.29416 90.3564 4.3631 90.6152 4.41487L90.8912 4.47805C91.3341 4.57584 91.7195 4.7023 92.053 4.85177C92.3865 5.00124 92.6454 5.20239 92.8294 5.44381C93.0192 5.69106 93.1112 6.00717 93.1112 6.39805C93.1112 6.78894 93.0134 7.12239 92.8121 7.42133C92.6109 7.72027 92.3348 7.94442 91.9725 8.11115C91.6102 8.27788 91.1904 8.35832 90.6958 8.35832V8.36407Z" fill="#74FBDE"/>
</g>
<defs>
<clipPath id="clip0_501_1400">
<rect width="93.0973" height="10" fill="white"/>
</clipPath>
</defs>
</svg>
